<svg xmlns="http://www.w3.org/2000/svg" version="1.1" xlink="http://www.w3.org/1999/xlink" xmlns:svgjs="http://svgjs.com/svgjs" width="100%" height="100%" viewBox="2.5299999713897705 -126.37999725341797 462 126.37999725341797"><g fill="#050505"><path d="M3.61 -1.08C4.33 -0.36 5.24 0 6.32 0L22.39 0C24.91 0 26.66 -1.14 27.62 -3.43L35.93 -25.28L89.37 -25.28L97.67 -3.43C98.63 -1.14 100.38 0 102.91 0L118.98 0C119.94 0 120.81 -0.36 121.59 -1.08C122.38 -1.81 122.77 -2.71 122.77 -3.79L122.41 -5.42L79.08 -121.86C77.87 -124.87 75.71 -126.38 72.58 -126.38L52.72 -126.38C49.59 -126.38 47.42 -124.87 46.22 -121.86L2.89 -5.42L2.53 -3.79C2.53 -2.71 2.89 -1.81 3.61 -1.08ZM42.25 -46.22L62.65 -101.82L83.05 -46.22Z M158.69 -1.26C159.54 -0.42 160.56 0 161.76 0L179.09 0C180.42 0 181.47 -0.42 182.25 -1.26C183.04 -2.11 183.43 -3.13 183.43 -4.33L183.43 -122.04C183.43 -123.37 183.04 -124.42 182.25 -125.2C181.47 -125.99 180.42 -126.38 179.09 -126.38L161.76 -126.38C160.56 -126.38 159.54 -125.99 158.69 -125.2C157.85 -124.42 157.43 -123.37 157.43 -122.04L157.43 -4.33C157.43 -3.13 157.85 -2.11 158.69 -1.26Z M230.91 -1.26C231.75 -0.42 232.78 0 233.98 0L278.93 0C296.87 0 310.14 -4 318.74 -12.01C327.35 -20.01 331.89 -32.44 332.37 -49.29C332.61 -56.27 332.73 -60.9 332.73 -63.19C332.73 -65.6 332.61 -70.29 332.37 -77.27C331.65 -110.01 313.54 -126.38 278.03 -126.38L233.98 -126.38C232.65 -126.38 231.6 -125.96 230.82 -125.11C230.04 -124.27 229.65 -123.19 229.65 -121.86L229.65 -4.33C229.65 -3.13 230.07 -2.11 230.91 -1.26ZM278.03 -20.94L255.1 -20.94L255.1 -105.43L277.13 -105.43C287.24 -105.43 294.64 -103.12 299.33 -98.48C304.03 -93.85 306.5 -86.6 306.74 -76.73C306.98 -69.75 307.1 -65.3 307.1 -63.37C307.1 -61.56 306.98 -57.05 306.74 -49.83C306.5 -39.48 304.15 -32.08 299.7 -27.62C295.24 -23.17 288.02 -20.94 278.03 -20.94Z M375.88 -1.26C376.73 -0.42 377.75 0 378.95 0L460.01 0C461.34 0 462.42 -0.39 463.26 -1.17C464.11 -1.96 464.53 -3.01 464.53 -4.33L464.53 -16.61C464.53 -17.93 464.11 -18.99 463.26 -19.77C462.42 -20.55 461.34 -20.94 460.01 -20.94L399.35 -20.94L399.35 -53.62L454.6 -53.62C455.92 -53.62 457.01 -54.01 457.85 -54.79C458.69 -55.58 459.11 -56.63 459.11 -57.95L459.11 -69.33C459.11 -70.65 458.69 -71.73 457.85 -72.58C457.01 -73.42 455.92 -73.84 454.6 -73.84L399.35 -73.84L399.35 -105.43L458.57 -105.43C459.89 -105.43 460.98 -105.83 461.82 -106.61C462.66 -107.39 463.08 -108.44 463.08 -109.77L463.08 -121.86C463.08 -123.19 462.66 -124.27 461.82 -125.11C460.98 -125.96 459.89 -126.38 458.57 -126.38L378.95 -126.38C377.63 -126.38 376.57 -125.96 375.79 -125.11C375.01 -124.27 374.62 -123.19 374.62 -121.86L374.62 -4.33C374.62 -3.13 375.04 -2.11 375.88 -1.26Z"></path></g></svg>